<?xml version="1.0" standalone="no"?>
<!DOCTYPE svg PUBLIC "-//W3C//DTD SVG 20010904//EN"
 "http://www.w3.org/TR/2001/REC-SVG-20010904/DTD/svg10.dtd">
<svg version="1.0" xmlns="http://www.w3.org/2000/svg"
 width="1700.000000pt" height="1700.000000pt" viewBox="0 0 1700.000000 1700.000000"
 preserveAspectRatio="xMidYMid meet">
<metadata>
Created by potrace 1.14, written by Peter Selinger 2001-2017
</metadata>
<g transform="translate(0.000000,1700.000000) scale(0.100000,-0.100000)"
fill="#000000" stroke="none">
<path d="M8105 16794 c-91 -20 -125 -25 -190 -29 -71 -6 -114 -12 -215 -31
-109 -20 -129 -23 -195 -30 -33 -3 -100 -14 -150 -24 -53 -10 -144 -18 -221
-19 -72 -1 -142 -4 -155 -6 -13 -2 -42 -6 -64 -9 -87 -10 -168 -29 -360 -81
-27 -7 -81 -16 -120 -20 -38 -3 -110 -20 -160 -36 -49 -17 -97 -32 -105 -34
-8 -3 -51 -14 -95 -25 -44 -12 -84 -23 -90 -24 -58 -15 -112 -31 -170 -53 -66
-25 -104 -43 -285 -141 -41 -22 -127 -59 -190 -82 -63 -23 -124 -47 -135 -53
-11 -6 -22 -11 -25 -12 -5 0 -142 -67 -675 -332 -137 -69 -266 -134 -285 -146
-94 -57 -286 -212 -381 -306 -110 -110 -177 -207 -262 -376 -23 -44 -68 -123
-102 -175 -34 -52 -76 -122 -94 -155 -57 -106 -52 -104 -109 -43 -27 29 -66
73 -87 98 -20 25 -55 68 -78 95 -60 73 -233 248 -297 300 -60 49 -102 58 -119
27 -13 -25 4 -59 64 -125 34 -37 118 -148 176 -232 64 -92 82 -126 179 -330
58 -121 69 -153 61 -170 -9 -18 -22 -55 -27 -77 -1 -5 -2 -9 -4 -10 -1 -2 -3
-10 -5 -18 -1 -8 -10 -42 -20 -75 -9 -33 -25 -105 -35 -160 -10 -55 -21 -113
-24 -130 -3 -16 -9 -41 -12 -55 -3 -14 -8 -95 -11 -180 -3 -85 -8 -159 -13
-163 -6 -7 -82 81 -115 134 -5 9 -22 34 -36 55 -14 21 -42 69 -62 106 -21 38
-53 98 -73 135 -20 38 -61 104 -90 148 -59 91 -134 232 -134 255 0 23 -46 144
-84 224 -158 325 -262 603 -281 750 -3 27 -8 52 -10 56 -2 3 -6 23 -9 45 -12
75 -22 100 -50 115 -26 14 -28 14 -50 -12 -49 -55 -69 -298 -35 -416 36 -127
83 -227 160 -344 75 -111 123 -196 168 -300 21 -48 86 -242 96 -288 41 -193
46 -231 55 -425 5 -115 11 -221 14 -235 5 -22 3 -21 -21 10 -23 31 -118 126
-155 156 -7 5 -56 39 -108 74 -52 36 -115 79 -138 97 -24 18 -69 45 -100 60
-32 14 -91 41 -132 60 -69 32 -214 89 -250 98 -8 2 -80 24 -159 50 -182 59
-166 56 -298 60 -99 2 -117 0 -160 -20 -50 -23 -132 -95 -152 -132 -40 -77 18
-104 153 -73 108 26 246 26 326 -1 58 -19 142 -68 201 -116 11 -10 30 -26 42
-36 103 -86 222 -242 281 -368 55 -116 65 -176 62 -367 -3 -140 0 -178 16
-237 38 -141 149 -255 343 -353 80 -40 250 -89 355 -102 303 -37 352 -51 374
-103 7 -17 12 -35 9 -39 -4 -8 -96 -35 -165 -48 -60 -12 -204 -14 -293 -5 -62
6 -169 33 -265 65 -44 15 -121 38 -150 45 -29 7 -114 37 -227 80 -71 27 -74
28 -93 10 -65 -59 23 -119 320 -218 107 -36 209 -68 225 -72 17 -5 35 -10 40
-11 18 -6 99 -22 145 -29 25 -3 59 -8 75 -11 111 -17 133 -19 235 -28 100 -9
106 -11 107 -44 0 -30 11 -125 18 -156 3 -12 8 -34 12 -51 7 -32 13 -319 13
-640 0 -194 0 -203 29 -291 16 -50 41 -110 55 -132 14 -23 26 -44 26 -47 0 -4
9 -25 19 -48 10 -23 26 -58 34 -78 8 -19 27 -48 42 -65 84 -89 151 -209 195
-349 7 -22 36 -98 65 -170 29 -71 56 -146 60 -165 4 -19 18 -61 31 -92 13 -31
38 -108 54 -170 17 -62 42 -145 55 -184 13 -39 26 -87 29 -105 3 -19 16 -65
30 -104 26 -74 32 -104 41 -200 7 -73 11 -105 23 -168 6 -27 10 -103 11 -170
1 -67 6 -156 12 -197 9 -66 8 -190 -4 -410 -4 -65 7 -125 70 -380 35 -142 56
-184 133 -259 157 -155 316 -254 442 -276 44 -8 42 -6 71 -87 24 -71 31 -97
42 -168 7 -45 33 -113 63 -170 74 -136 184 -357 205 -407 15 -36 24 -83 26
-124 1 -36 6 -82 11 -103 5 -21 9 -122 10 -225 1 -257 6 -402 14 -431 3 -14 6
-143 6 -288 0 -249 1 -265 22 -310 26 -57 66 -195 79 -277 6 -33 17 -83 26
-112 14 -47 14 -55 0 -85 -8 -18 -22 -54 -31 -81 -9 -26 -26 -64 -38 -85 -36
-58 -55 -101 -81 -182 -14 -41 -41 -106 -60 -145 -19 -38 -45 -91 -57 -117
-15 -31 -63 -84 -149 -165 -69 -65 -147 -139 -172 -164 -41 -40 -68 -61 -140
-104 -9 -5 -59 -40 -110 -76 -138 -97 -263 -160 -349 -175 -33 -6 -112 -35
-128 -47 -6 -5 -12 -7 -12 -3 0 4 -13 0 -29 -9 -17 -8 -47 -18 -68 -21 -21 -3
-74 -14 -118 -24 -44 -10 -104 -21 -133 -24 -29 -3 -56 -8 -61 -10 -7 -5 -24
-9 -88 -21 -16 -3 -35 -8 -43 -10 -8 -3 -33 -7 -54 -11 -22 -3 -51 -11 -65
-17 -30 -12 -26 -11 -68 -21 -17 -4 -53 -28 -79 -54 -64 -65 -203 -252 -249
-337 -21 -38 -49 -86 -61 -106 -13 -20 -30 -64 -39 -97 -8 -34 -26 -83 -40
-110 -14 -28 -25 -55 -25 -61 0 -60 -149 -261 -243 -328 -108 -77 -230 -112
-395 -112 -64 0 -123 4 -131 9 -9 4 -29 11 -46 14 -16 3 -48 10 -70 15 -22 6
-61 14 -88 17 -26 3 -98 19 -159 34 -93 23 -134 28 -247 29 -178 2 -290 -29
-353 -96 -87 -93 -217 -326 -289 -518 -48 -128 -52 -147 -53 -225 0 -135 26
-172 211 -311 34 -25 75 -51 90 -57 102 -38 179 -66 183 -67 3 0 28 -7 55 -15
81 -24 665 -20 705 5 4 2 29 7 56 10 81 10 106 15 123 24 9 4 54 18 101 30 47
11 130 37 185 56 55 20 123 43 150 52 94 30 240 75 255 78 8 2 34 8 58 14 44
12 144 17 159 8 5 -3 20 -8 34 -11 13 -3 89 -28 169 -56 80 -28 163 -57 185
-64 22 -7 69 -26 105 -41 146 -62 246 -83 393 -81 131 1 147 6 332 103 240
125 277 141 381 166 216 53 370 59 494 21 30 -10 60 -18 67 -20 6 -1 27 -7 45
-12 18 -6 47 -13 63 -16 17 -2 53 -9 80 -15 28 -6 127 -9 220 -7 163 2 172 4
227 30 53 26 138 92 198 155 35 36 90 107 90 116 0 5 11 22 23 39 13 17 43 69
68 116 31 60 67 109 124 169 44 46 85 89 91 95 22 23 167 270 194 331 37 81
104 185 164 251 25 29 46 55 46 59 0 4 19 35 43 69 45 64 124 211 187 346 20
44 52 151 49 167 -5 28 1 33 24 21 12 -7 29 -18 37 -24 8 -6 51 -25 95 -42 44
-17 138 -56 208 -86 221 -96 296 -110 617 -120 119 -3 145 -1 225 20 50 14
105 27 123 30 19 2 62 14 95 26 83 28 85 28 302 29 176 1 197 -1 270 -24 176
-55 298 -81 380 -81 173 1 321 8 350 15 17 4 48 10 69 14 76 11 222 63 351
125 11 5 52 21 90 36 39 14 98 41 133 59 61 34 62 34 63 12 1 -12 1 -25 0 -29
-3 -25 107 -288 129 -308 3 -3 14 -25 25 -48 25 -58 114 -195 164 -255 54 -63
156 -216 166 -247 8 -28 45 -98 75 -145 10 -16 37 -61 58 -100 42 -73 49 -82
169 -208 41 -43 83 -98 94 -123 45 -100 147 -255 209 -314 170 -164 216 -182
455 -179 83 1 166 6 185 11 19 4 51 10 70 14 19 3 49 9 66 15 17 5 40 11 51
13 11 3 43 12 69 21 59 20 228 29 305 15 30 -5 68 -11 84 -13 108 -17 228 -58
340 -117 150 -80 186 -99 275 -139 84 -39 87 -39 203 -39 108 1 151 7 287 43
14 4 48 17 75 30 55 26 259 99 365 130 3 1 19 7 35 14 54 22 139 42 185 42 39
1 67 -4 150 -25 28 -7 214 -66 275 -87 139 -47 262 -87 290 -95 17 -4 32 -8
35 -9 3 -1 19 -5 35 -9 17 -4 41 -12 55 -17 27 -10 50 -15 115 -23 22 -3 74
-12 115 -20 57 -11 141 -14 350 -11 292 3 301 4 445 60 123 48 136 55 213 112
147 111 184 168 187 287 3 70 0 82 -69 271 -30 83 -132 285 -160 319 -12 13
-39 53 -61 89 -49 78 -89 108 -189 142 -68 23 -91 26 -207 24 -121 -1 -178 -9
-334 -47 -22 -6 -58 -13 -80 -16 -22 -3 -71 -12 -110 -21 -38 -9 -81 -19 -94
-21 -14 -3 -29 -8 -34 -11 -10 -6 -183 -5 -214 2 -206 43 -277 84 -417 244
-41 48 -106 163 -106 189 0 5 -12 36 -27 68 -15 33 -28 64 -30 69 -1 6 -5 23
-8 40 -3 16 -23 61 -44 100 -88 160 -105 191 -118 203 -7 8 -34 44 -60 80 -45
64 -60 82 -115 143 -23 26 -91 76 -96 71 -3 -3 -54 9 -67 17 -5 3 -14 6 -20 7
-5 1 -23 5 -40 8 -16 3 -43 8 -60 11 -16 3 -38 8 -47 11 -28 8 -130 28 -198
39 -38 6 -147 29 -220 47 -25 6 -74 24 -110 39 -36 15 -82 30 -104 33 -76 12
-314 136 -376 195 -8 8 -52 39 -98 68 -45 29 -104 75 -130 101 -26 26 -103 99
-170 162 -96 90 -128 127 -148 170 -14 30 -39 82 -56 115 -17 33 -41 92 -53
130 -26 79 -53 141 -89 202 -14 22 -32 65 -40 94 -9 29 -22 62 -30 74 -13 19
-13 25 0 43 13 20 17 35 29 136 3 27 12 64 20 82 7 17 18 57 25 87 6 31 22 79
36 108 17 35 26 69 26 103 0 28 -1 146 -2 261 0 116 2 221 6 235 4 14 9 140
10 280 3 244 8 348 18 398 3 12 6 50 7 84 1 36 12 84 26 120 26 64 177 364
193 383 22 26 68 157 79 221 14 82 62 218 77 221 6 1 22 4 35 7 30 5 116 39
172 67 110 56 323 246 352 316 29 66 60 180 79 283 3 14 7 34 10 45 35 146 45
257 26 280 -8 10 -10 60 -7 167 10 280 24 545 30 554 7 12 14 63 26 179 5 50
19 118 31 150 23 64 28 83 36 129 3 16 17 61 30 100 14 39 27 82 30 96 10 46
42 155 63 215 12 33 31 89 42 125 12 36 44 126 73 200 29 74 70 179 91 233 38
100 87 181 151 252 20 22 43 56 51 75 8 19 24 54 34 77 10 23 19 44 19 48 0 3
11 24 26 46 14 22 38 79 53 127 27 83 29 97 31 292 3 281 3 264 1 413 0 72 1
143 3 157 3 14 7 43 11 65 3 22 10 65 15 95 5 30 11 77 14 103 2 27 5 50 7 52
2 2 42 6 89 9 98 8 126 11 207 25 32 5 76 13 98 16 22 3 56 8 75 11 102 16
512 148 591 191 92 50 119 92 80 127 -19 17 -25 16 -143 -28 -68 -24 -150 -52
-183 -61 -33 -9 -105 -32 -160 -50 -139 -47 -229 -61 -380 -63 -128 -1 -167 4
-274 35 -52 15 -53 16 -47 46 4 18 12 37 19 43 16 16 101 41 162 49 28 3 61 8
75 10 14 2 48 6 75 10 342 41 612 186 715 382 11 22 22 49 24 59 3 11 9 37 14
60 5 22 8 113 6 202 -3 180 8 246 55 349 49 105 178 289 236 334 11 10 34 29
50 44 82 73 197 146 256 162 57 15 244 12 319 -6 114 -28 160 -16 160 40 0 35
-87 127 -153 161 -47 24 -163 32 -271 17 -58 -8 -258 -68 -383 -116 -34 -13
-76 -26 -93 -29 -16 -4 -30 -10 -30 -14 0 -3 -6 -7 -12 -7 -13 0 -49 -16 -207
-90 -40 -19 -98 -54 -130 -77 -31 -23 -76 -55 -101 -71 -95 -63 -217 -162
-248 -202 -40 -51 -64 -80 -58 -66 3 6 8 60 11 120 2 59 7 160 10 223 3 63 7
126 10 140 37 190 73 319 124 450 27 69 93 199 123 243 13 19 44 65 70 103 25
38 55 89 66 114 78 174 95 236 97 351 2 95 -21 251 -37 257 -4 2 -8 10 -8 17
0 18 -49 29 -65 15 -17 -14 -34 -63 -40 -116 -3 -21 -9 -52 -14 -69 -5 -16
-12 -52 -16 -79 -10 -72 -116 -371 -181 -511 -31 -66 -72 -153 -91 -194 -40
-86 -83 -202 -83 -224 0 -22 -68 -148 -141 -262 -57 -88 -97 -159 -147 -260
-45 -90 -203 -315 -221 -315 -4 0 -9 53 -10 118 -3 145 -7 182 -30 307 -11 55
-22 117 -25 138 -10 65 -69 274 -88 313 -8 18 -1 41 47 135 31 62 68 140 82
174 20 48 84 154 126 210 115 154 151 200 160 210 7 6 21 24 32 39 11 16 26
34 33 41 8 10 9 21 2 39 -14 38 -58 35 -107 -6 -65 -56 -277 -270 -323 -328
-24 -30 -50 -62 -57 -70 -8 -8 -23 -26 -34 -40 -11 -14 -41 -47 -66 -73 l-46
-48 -27 43 c-15 24 -41 68 -58 99 -17 31 -50 85 -74 120 -23 35 -64 107 -91
159 -28 52 -65 119 -83 148 -19 29 -34 55 -34 58 0 27 -176 213 -285 301 -161
131 -243 183 -445 283 -600 299 -818 403 -916 438 -60 22 -147 59 -192 83 -46
24 -113 60 -150 80 -91 49 -211 92 -362 130 -69 17 -171 46 -227 65 -56 19
-132 36 -170 39 -65 5 -92 11 -193 41 -54 15 -161 40 -210 48 -19 3 -46 9 -60
12 -14 3 -74 7 -135 10 -242 9 -271 12 -371 34 -22 5 -69 12 -105 15 -35 3
-111 14 -169 25 -113 20 -154 26 -240 35 -75 7 -102 11 -190 29 -98 19 -682
20 -775 0z"/>
</g>
</svg>
